# xmcd
#
# Track frame offsets: 
#        150
#        14845
#        32721
#        49860
#        69226
#        82236
#
# Disc length: 1363 seconds
#
# Revision: 0
# Processed by: cddbd v1.5.2PL0 Copyright (c) Steve Scherf et al.
# Submitted via: ExactAudioCopyFreeDBPlugin 1.0
#
DISCID=4e055106
DTITLE=Las Vegas Drive Thru Wedding Chapel - Promotional Copy
DYEAR=1900
DGENRE=Blues
TTITLE0=Heavy 70s
TTITLE1=Flash
TTITLE2=Honey
TTITLE3=Put a Smile
TTITLE4=Circus Song
TTITLE5=Swing Baba, Swing
EXTD=
EXTT0=
EXTT1=
EXTT2=
EXTT3=
EXTT4=
EXTT5=
PLAYORDER=
